<?xml version="1.0" encoding="UTF-8" standalone="no"?>
<svg
   xmlns:dc="http://purl.org/dc/elements/1.1/"
   xmlns:cc="http://creativecommons.org/ns#"
   xmlns:rdf="http://www.w3.org/1999/02/22-rdf-syntax-ns#"
   xmlns:svg="http://www.w3.org/2000/svg"
   xmlns="http://www.w3.org/2000/svg"
   xmlns:sodipodi="http://sodipodi.sourceforge.net/DTD/sodipodi-0.dtd"
   xmlns:inkscape="http://www.inkscape.org/namespaces/inkscape"
   version="1.1"
   id="Capa_1"
   x="0px"
   y="0px"
   width="459px"
   height="459px"
   viewBox="0 0 459 459"
   style="enable-background:new 0 0 459 459;"
   xml:space="preserve"
   sodipodi:docname="download.svg"
   inkscape:version="1.0.1 (1.0.1+r74)"><metadata
   id="metadata42"><rdf:RDF><cc:Work
       rdf:about=""><dc:format>image/svg+xml</dc:format><dc:type
         rdf:resource="http://purl.org/dc/dcmitype/StillImage" /></cc:Work></rdf:RDF></metadata><defs
   id="defs40" /><sodipodi:namedview
   pagecolor="#ffffff"
   bordercolor="#666666"
   borderopacity="1"
   objecttolerance="10"
   gridtolerance="10"
   guidetolerance="10"
   inkscape:pageopacity="0"
   inkscape:pageshadow="2"
   inkscape:window-width="1920"
   inkscape:window-height="1044"
   id="namedview38"
   showgrid="false"
   inkscape:zoom="2.0610022"
   inkscape:cx="229.5"
   inkscape:cy="229.5"
   inkscape:window-x="0"
   inkscape:window-y="120"
   inkscape:window-maximized="1"
   inkscape:current-layer="g5" />
<g
   id="g5">
	<g
   id="archive"
   style="fill:#f2f2f2;fill-opacity:1">
		<path
   d="M446.25,56.1l-35.7-43.35C405.45,5.1,395.25,0,382.5,0h-306C63.75,0,53.55,5.1,45.9,12.75L12.75,56.1    C5.1,66.3,0,76.5,0,89.25V408c0,28.05,22.95,51,51,51h357c28.05,0,51-22.95,51-51V89.25C459,76.5,453.9,66.3,446.25,56.1z     M229.5,369.75L89.25,229.5h89.25v-51h102v51h89.25L229.5,369.75z M53.55,51l20.4-25.5h306L402.9,51H53.55z"
   id="path2"
   style="fill:#f2f2f2;fill-opacity:1" />
	</g>
</g>
<g
   id="g7">
</g>
<g
   id="g9">
</g>
<g
   id="g11">
</g>
<g
   id="g13">
</g>
<g
   id="g15">
</g>
<g
   id="g17">
</g>
<g
   id="g19">
</g>
<g
   id="g21">
</g>
<g
   id="g23">
</g>
<g
   id="g25">
</g>
<g
   id="g27">
</g>
<g
   id="g29">
</g>
<g
   id="g31">
</g>
<g
   id="g33">
</g>
<g
   id="g35">
</g>
</svg>
