<?xml version="1.0" encoding="UTF-8" standalone="no"?>
<svg
   width="50"
   height="50"
   viewBox="0 0 50 50"
   version="1.1"
   id="svg226"
   sodipodi:docname="github.svg"
   inkscape:version="1.1 (c4e8f9ed74, 2021-05-24)"
   xmlns:inkscape="http://www.inkscape.org/namespaces/inkscape"
   xmlns:sodipodi="http://sodipodi.sourceforge.net/DTD/sodipodi-0.dtd"
   xmlns="http://www.w3.org/2000/svg"
   xmlns:svg="http://www.w3.org/2000/svg">
  <defs
     id="defs230" />
  <sodipodi:namedview
     id="namedview228"
     pagecolor="#ffffff"
     bordercolor="#666666"
     borderopacity="1.0"
     inkscape:pageshadow="2"
     inkscape:pageopacity="0.0"
     inkscape:pagecheckerboard="0"
     showgrid="false"
     inkscape:zoom="12.3125"
     inkscape:cx="1.6243655"
     inkscape:cy="11.939086"
     inkscape:window-width="2560"
     inkscape:window-height="1404"
     inkscape:window-x="2560"
     inkscape:window-y="0"
     inkscape:window-maximized="1"
     inkscape:current-layer="svg226"
     width="50px" />
  <path
     d="m 24.999999,0.80624436 c -13.696704,0 -24.8053805,11.10660964 -24.8053805,24.80538064 0,10.959845 7.1067418,20.257729 16.9648135,23.53824 1.238202,0.22945 1.639222,-0.539517 1.639222,-1.192725 V 43.339205 C 11.898624,44.83993 10.461979,40.41217 10.461979,40.41217 9.3333345,37.545081 7.7065149,36.782316 7.7065149,36.782316 5.4554265,35.242315 7.8780854,35.275389 7.8780854,35.275389 10.368959,35.449026 11.67951,37.83241 11.67951,37.83241 c 2.211813,3.791089 5.802392,2.695518 7.218366,2.060914 0.221181,-1.602014 0.864054,-2.697585 1.575141,-3.315653 -5.508861,-0.63047 -11.3009175,-2.757531 -11.3009175,-12.26006 0,-2.709988 0.9694765,-4.921801 2.5549535,-6.658177 -0.256322,-0.626336 -1.105906,-3.150284 0.241853,-6.565158 0,0 2.083652,-0.665611 6.823547,2.542552 1.978229,-0.549853 4.099089,-0.824779 6.207546,-0.835115 2.108458,0.01034 4.231385,0.285262 6.213749,0.835115 4.73576,-3.208163 6.815278,-2.542552 6.815278,-2.542552 1.349826,3.416941 0.500242,5.940889 0.24392,6.565158 1.591678,1.736376 2.552887,3.950257 2.552887,6.658177 0,9.527334 -5.802392,11.625456 -11.325724,12.239389 0.88886,0.768967 1.701236,2.277961 1.701236,4.59313 v 6.80701 c 0,0.65941 0.396886,1.434578 1.655759,1.190658 9.849804,-3.284646 16.948278,-12.580462 16.948278,-23.536173 0,-13.698771 -11.106611,-24.80538064 -24.805383,-24.80538064 z"
     id="path224"
     style="fill:#ffffff;fill-opacity:1;stroke-width:2.06712" />
</svg>
